<?xml version="1.0" standalone="no"?>
<!DOCTYPE svg PUBLIC "-//W3C//DTD SVG 20010904//EN"
 "http://www.w3.org/TR/2001/REC-SVG-20010904/DTD/svg10.dtd">
<svg version="1.0" xmlns="http://www.w3.org/2000/svg"
 width="186.000000pt" height="186.000000pt" viewBox="0 0 186.000000 186.000000"
 preserveAspectRatio="xMidYMid meet">
<metadata>
Created by potrace 1.14, written by Peter Selinger 2001-2017
</metadata>
<g transform="translate(0.000000,186.000000) scale(0.100000,-0.100000)"
fill="#000000" stroke="none">
<path d="M1068 1116 c-1 -2 -73 -6 -158 -10 -224 -9 -276 -15 -475 -53 -72
-13 -134 -29 -140 -35 -7 -7 -6 -9 1 -5 11 6 206 42 282 51 221 28 589 28 784
1 146 -20 295 -70 346 -115 54 -47 46 -114 -18 -160 -52 -37 -25 -34 34 4 86
55 106 111 61 165 -36 42 -119 79 -244 106 -136 30 -160 33 -316 41 -71 3
-135 7 -142 9 -6 2 -13 2 -15 1z"/>
<path d="M753 911 c-1 -80 -13 -121 -37 -121 -28 0 -40 32 -41 108 0 70 -2 77
-20 77 -18 0 -20 -7 -21 -75 -2 -91 13 -135 51 -144 36 -9 79 9 95 39 18 33
19 183 2 190 -27 10 -29 4 -29 -74z"/>
<path d="M983 944 c-9 -23 11 -38 26 -20 13 16 7 36 -10 36 -5 0 -12 -7 -16
-16z"/>
<path d="M1122 896 l-19 -25 -21 21 c-19 20 -22 20 -28 5 -3 -10 1 -28 9 -40
14 -22 13 -26 -5 -55 -16 -26 -18 -35 -8 -47 11 -13 15 -11 32 16 l19 31 20
-26 c23 -30 37 -33 46 -10 3 9 -5 26 -21 43 l-27 28 26 31 c24 29 26 52 5 52
-5 0 -17 -11 -28 -24z"/>
<path d="M832 893 c-12 -26 -8 -136 5 -140 15 -5 27 16 29 50 1 15 2 34 3 42
0 8 10 15 21 15 18 0 20 -7 20 -56 0 -47 3 -55 18 -52 14 3 17 14 15 68 -1 69
-20 98 -52 80 -10 -5 -23 -4 -33 1 -13 7 -19 5 -26 -8z"/>
<path d="M184 874 c-21 -15 -44 -34 -51 -43 -17 -23 -16 -67 3 -86 38 -38 155
-77 269 -90 28 -3 65 -8 84 -11 89 -14 453 0 541 21 3 1 30 5 60 9 30 5 62 12
70 17 10 6 3 8 -20 4 -143 -22 -196 -26 -355 -30 -258 -5 -435 19 -545 75 -67
34 -78 83 -31 131 37 36 26 37 -25 3z"/>
<path d="M993 893 c-9 -3 -13 -28 -13 -74 0 -62 2 -69 20 -69 18 0 19 6 17 70
-3 74 -5 80 -24 73z"/>
<path d="M1185 700 c-3 -6 1 -7 9 -4 18 7 21 14 7 14 -6 0 -13 -4 -16 -10z"/>
</g>
</svg>
